<?xml version="1.0" encoding="UTF-8"?>
<svg id="Layer_2" data-name="Layer 2" xmlns="http://www.w3.org/2000/svg" viewBox="0 0 1154.06 755.22">
  <defs>
    <style>
      .cls-1 {
        fill: #211e1d;
      }

      .cls-2 {
        fill: #7f3f97;
      }

      .cls-3 {
        fill: #e9cb1d;
      }
    </style>
  </defs>
  <g id="Layer_1-2" data-name="Layer 1">
    <g>
      <g>
        <polygon class="cls-1" points="601.12 92.96 617.19 92.96 617.19 131.71 623.31 131.71 623.31 92.96 639.32 92.96 639.32 87.08 601.12 87.08 601.12 92.96"/>
        <polygon class="cls-1" points="683.52 87.08 668.72 111.76 654.11 87.08 647.56 87.08 647.56 131.71 653.63 131.71 653.5 97.99 666.6 119.28 670.91 119.28 684 97.93 683.94 131.71 690 131.71 690 87.08 683.52 87.08"/>
      </g>
      <g>
        <polygon class="cls-3" points="845.72 652.12 659.2 652.12 569.4 529.88 686.03 433.94 845.72 652.12"/>
        <polygon class="cls-2" points="1154.06 0 663.25 402.89 548.18 500.98 232.64 755.22 0 755.22 482 376.39 601.12 283.9 961.62 0 1154.06 0"/>
        <polygon class="cls-3" points="578.5 253.52 459.39 346.01 303.58 133.46 490.1 133.46 578.5 253.52"/>
      </g>
    </g>
  </g>
</svg>